<?xml version="1.0" encoding="UTF-8" standalone="no"?><!DOCTYPE svg PUBLIC "-//W3C//DTD SVG 1.1//EN" "http://www.w3.org/Graphics/SVG/1.1/DTD/svg11.dtd"><svg width="100%" height="100%" viewBox="0 0 239 258" version="1.1" xmlns="http://www.w3.org/2000/svg" xmlns:xlink="http://www.w3.org/1999/xlink" xml:space="preserve" xmlns:serif="http://www.serif.com/" style="fill-rule:evenodd;clip-rule:evenodd;stroke-linejoin:round;stroke-miterlimit:1.41421;"><path d="M16.597,64.842l-9.395,2.866l31.359,-59.928l31.994,57.075l-10.65,-2.227c3.326,7.115 7.981,13.553 10.98,16.733c5.295,5.606 9.948,7.656 17.827,9.689c15.755,4.097 45.385,4.088 73.876,27.669c5.197,4.126 11.047,10.215 16.06,16.472c2.308,-13.227 2.553,-28.783 -0.556,-46.846l-10.348,3.108l29.844,-57.53l33.853,57.476l-10.396,-3.326l-0.92,0c5.615,42.434 -3.661,76.563 -16.221,100.423c-15.482,29.441 -36.657,45.024 -36.657,45.024c-8.003,7.103 -17.534,12.533 -28.43,15.655c-39.082,11.195 -80.421,-11.742 -91.611,-50.805c-7.45,-26.011 0.306,-52.862 17.798,-71.303c-8.391,-3.68 -16.885,-9.144 -24.37,-17.058c-9.893,-10.471 -17.734,-24.365 -24.037,-43.167Zm92.858,79.831c17.394,-4.983 35.064,5 40.046,22.394c4.983,17.393 -4.894,35.049 -22.288,40.032c-17.403,4.985 -35.121,-4.766 -40.103,-22.16c-4.983,-17.394 4.942,-35.281 22.345,-40.266Z" style="fill:#fff;"/></svg>