<?xml version="1.0" encoding="UTF-8" standalone="no"?><!DOCTYPE svg PUBLIC "-//W3C//DTD SVG 1.1//EN" "http://www.w3.org/Graphics/SVG/1.1/DTD/svg11.dtd"><svg width="100%" height="100%" viewBox="0 0 384 384" version="1.1" xmlns="http://www.w3.org/2000/svg" xmlns:xlink="http://www.w3.org/1999/xlink" xml:space="preserve" style="fill-rule:evenodd;clip-rule:evenodd;stroke-linejoin:round;stroke-miterlimit:1.41421;"><g><path d="M108.387,60.361l-7.962,2.428l26.577,-50.789l27.114,48.371l-9.025,-1.887c2.819,6.03 6.764,11.487 9.305,14.181c4.488,4.751 8.431,6.489 15.108,8.212c13.353,3.472 38.465,3.464 62.61,23.449c4.405,3.497 9.363,8.657 13.611,13.96c1.956,-11.209 2.164,-24.393 -0.471,-39.702l-8.77,2.635l25.293,-48.758l28.69,48.711l-8.81,-2.818l-0.78,0c4.759,35.962 -3.103,64.887 -13.747,85.108c-13.122,24.952 -31.067,38.158 -31.067,38.158c-6.782,6.019 -14.86,10.622 -24.094,13.267c-33.122,9.488 -68.157,-9.951 -77.64,-43.057c-6.315,-22.044 0.258,-44.8 15.083,-60.429c-7.111,-3.119 -14.31,-7.75 -20.653,-14.457c-8.385,-8.874 -15.03,-20.649 -20.372,-36.583Zm78.697,67.656c14.741,-4.223 29.717,4.237 33.94,18.979c4.222,14.741 -4.148,29.704 -18.89,33.927c-14.749,4.225 -29.764,-4.039 -33.987,-18.78c-4.223,-14.742 4.188,-29.901 18.937,-34.126Z" style="fill:#fff;"/><g transform="matrix(0.248522,0,0,0.247472,-82.5887,-107.45)"><path d="M578.903,1846c-43.832,0 -53.671,0 -53.671,-71.562l0,-517.037l-110.922,0l0,562.658c0,64.406 34.887,117.183 114.5,117.183l40.253,0l9.84,-91.242Z" style="fill:#fff;fill-rule:nonzero;"/><path d="M990.386,1928.3l0,-447.264l-110.922,0l0,325.608c-20.574,24.152 -47.41,37.57 -84.085,37.57c-62.617,0 -88.558,-39.359 -88.558,-122.55l0,-240.628l-110.922,0l0,240.628c0,126.128 50.094,215.581 189.64,215.581c34.887,0 73.351,-16.102 99.293,-35.781l1.789,26.836l103.765,0Z" style="fill:#fff;fill-rule:nonzero;"/><path d="M1436.76,1928.3l-144.913,-223.632l144.913,-223.632l-132.39,0l-75.14,126.128l-81.402,-126.128l-132.39,0l144.019,223.632l-144.019,223.632l132.39,0l75.14,-126.129l81.402,126.129l132.39,0Z" style="fill:#fff;fill-rule:nonzero;"/><path d="M1816.04,1728.82c4.472,-21.469 7.156,-41.148 7.156,-60.828c0,-118.077 -84.086,-194.112 -196.796,-194.112c-137.757,0 -214.687,107.343 -214.687,231.682c0,125.234 80.508,231.683 242.417,231.683c63.512,0 115.394,-16.102 149.386,-33.992l-5.367,-93.925c-36.676,19.679 -95.714,36.675 -137.757,36.675c-59.039,0 -120.761,-33.992 -133.285,-117.183l288.933,0Zm-186.062,-163.698c59.933,0 80.507,48.304 80.507,88.558l-180.694,0c10.734,-50.988 42.937,-88.558 100.187,-88.558Z" style="fill:#fff;fill-rule:nonzero;"/></g></g></svg>