<?xml version="1.0" encoding="UTF-8" standalone="no"?><!DOCTYPE svg PUBLIC "-//W3C//DTD SVG 1.1//EN" "http://www.w3.org/Graphics/SVG/1.1/DTD/svg11.dtd"><svg width="100%" height="100%" viewBox="0 0 239 380" version="1.1" xmlns="http://www.w3.org/2000/svg" xmlns:xlink="http://www.w3.org/1999/xlink" xml:space="preserve" style="fill-rule:evenodd;clip-rule:evenodd;stroke-linejoin:round;stroke-miterlimit:1.41421;"><g><path d="M9.999,60.728l-9.999,3.049l33.374,-63.777l34.048,60.741l-11.333,-2.369c3.539,7.571 8.493,14.423 11.685,17.807c5.635,5.966 10.587,8.148 18.972,10.312c16.767,4.36 48.301,4.35 78.621,29.445c5.531,4.392 11.757,10.871 17.092,17.531c2.456,-14.076 2.716,-30.632 -0.592,-49.855l-11.012,3.308l31.76,-61.226l36.027,61.168l-11.063,-3.539l-0.979,0c5.975,45.159 -3.897,81.481 -17.263,106.873c-16.477,31.332 -39.011,47.916 -39.011,47.916c-8.517,7.559 -18.661,13.338 -30.256,16.66c-41.593,11.914 -85.587,-12.496 -97.496,-54.068c-7.929,-27.682 0.325,-56.258 18.941,-75.883c-8.93,-3.917 -17.97,-9.732 -25.935,-18.154c-10.529,-11.144 -18.874,-25.93 -25.581,-45.939Zm98.822,84.958c18.511,-5.303 37.316,5.321 42.619,23.832c5.303,18.511 -5.209,37.301 -23.72,42.604c-18.521,5.306 -37.376,-5.072 -42.679,-23.583c-5.303,-18.511 5.259,-37.547 23.78,-42.853Z" style="fill:url(#_Linear1);"/><g transform="matrix(0.164679,0,0,0.163983,-62.6305,61.8701)"><path d="M578.903,1846c-43.832,0 -53.671,0 -53.671,-71.562l0,-517.037l-110.922,0l0,562.658c0,64.406 34.887,117.183 114.5,117.183l40.253,0l9.84,-91.242Z" style="fill:url(#_Linear2);fill-rule:nonzero;"/><path d="M990.386,1928.3l0,-447.264l-110.922,0l0,325.608c-20.574,24.152 -47.41,37.57 -84.085,37.57c-62.617,0 -88.558,-39.359 -88.558,-122.55l0,-240.628l-110.922,0l0,240.628c0,126.128 50.094,215.581 189.64,215.581c34.887,0 73.351,-16.102 99.293,-35.781l1.789,26.836l103.765,0Z" style="fill:url(#_Linear3);fill-rule:nonzero;"/><path d="M1436.76,1928.3l-144.913,-223.632l144.913,-223.632l-132.39,0l-75.14,126.128l-81.402,-126.128l-132.39,0l144.019,223.632l-144.019,223.632l132.39,0l75.14,-126.129l81.402,126.129l132.39,0Z" style="fill:url(#_Linear4);fill-rule:nonzero;"/><path d="M1816.04,1728.82c4.472,-21.469 7.156,-41.148 7.156,-60.828c0,-118.077 -84.086,-194.112 -196.796,-194.112c-137.757,0 -214.687,107.343 -214.687,231.682c0,125.234 80.508,231.683 242.417,231.683c63.512,0 115.394,-16.102 149.386,-33.992l-5.367,-93.925c-36.676,19.679 -95.714,36.675 -137.757,36.675c-59.039,0 -120.761,-33.992 -133.285,-117.183l288.933,0Zm-186.062,-163.698c59.933,0 80.507,48.304 80.507,88.558l-180.694,0c10.734,-50.988 42.937,-88.558 100.187,-88.558Z" style="fill:url(#_Linear5);fill-rule:nonzero;"/></g></g><defs><linearGradient id="_Linear1" x1="0" y1="0" x2="1" y2="0" gradientUnits="userSpaceOnUse" gradientTransform="matrix(233.045,-299.732,299.732,233.045,5.59778,309.471)"><stop offset="0" style="stop-color:#ff007c;stop-opacity:1"/><stop offset="0.52" style="stop-color:#34326a;stop-opacity:1"/><stop offset="1" style="stop-color:#161619;stop-opacity:1"/></linearGradient><linearGradient id="_Linear2" x1="0" y1="0" x2="1" y2="0" gradientUnits="userSpaceOnUse" gradientTransform="matrix(2206.86,-2987.35,2974.72,2216.23,251.716,3074.99)"><stop offset="0" style="stop-color:#ff007c;stop-opacity:1"/><stop offset="0.52" style="stop-color:#34326a;stop-opacity:1"/><stop offset="1" style="stop-color:#161619;stop-opacity:1"/></linearGradient><linearGradient id="_Linear3" x1="0" y1="0" x2="1" y2="0" gradientUnits="userSpaceOnUse" gradientTransform="matrix(2206.86,-2987.35,2974.72,2216.23,251.716,3074.99)"><stop offset="0" style="stop-color:#ff007c;stop-opacity:1"/><stop offset="0.52" style="stop-color:#34326a;stop-opacity:1"/><stop offset="1" style="stop-color:#161619;stop-opacity:1"/></linearGradient><linearGradient id="_Linear4" x1="0" y1="0" x2="1" y2="0" gradientUnits="userSpaceOnUse" gradientTransform="matrix(2206.86,-2987.35,2974.72,2216.23,251.716,3074.99)"><stop offset="0" style="stop-color:#ff007c;stop-opacity:1"/><stop offset="0.52" style="stop-color:#34326a;stop-opacity:1"/><stop offset="1" style="stop-color:#161619;stop-opacity:1"/></linearGradient><linearGradient id="_Linear5" x1="0" y1="0" x2="1" y2="0" gradientUnits="userSpaceOnUse" gradientTransform="matrix(2206.86,-2987.35,2974.72,2216.23,251.716,3074.99)"><stop offset="0" style="stop-color:#ff007c;stop-opacity:1"/><stop offset="0.52" style="stop-color:#34326a;stop-opacity:1"/><stop offset="1" style="stop-color:#161619;stop-opacity:1"/></linearGradient></defs></svg>