<?xml version="1.0" encoding="UTF-8" standalone="no"?>
<!DOCTYPE svg PUBLIC "-//W3C//DTD SVG 1.1//EN" "http://www.w3.org/Graphics/SVG/1.1/DTD/svg11.dtd">
<svg width="100%" height="100%" viewBox="0 0 96 153" version="1.1" xmlns="http://www.w3.org/2000/svg" xmlns:xlink="http://www.w3.org/1999/xlink" xml:space="preserve" xmlns:serif="http://www.serif.com/" style="fill-rule:evenodd;clip-rule:evenodd;stroke-linejoin:round;stroke-miterlimit:2;">
    <g transform="matrix(0.401674,0,0,0.401674,0,0)">
        <path d="M9.999,60.728L0,63.777L33.374,0L67.422,60.741L56.089,58.372C59.628,65.943 64.582,72.795 67.774,76.179C73.409,82.145 78.361,84.327 86.746,86.491C103.513,90.851 135.047,90.841 165.367,115.936C170.898,120.328 177.124,126.807 182.459,133.467C184.915,119.391 185.175,102.835 181.867,83.612L170.855,86.92L202.615,25.694L238.642,86.862L227.579,83.323L226.6,83.323C232.575,128.482 222.703,164.804 209.337,190.196C192.86,221.528 170.326,238.112 170.326,238.112C161.809,245.671 151.665,251.45 140.07,254.772C98.477,266.686 54.483,242.276 42.574,200.704C34.645,173.022 42.899,144.446 61.515,124.821C52.585,120.904 43.545,115.089 35.58,106.667C25.051,95.523 16.706,80.737 9.999,60.728ZM108.821,145.686C127.332,140.383 146.137,151.007 151.44,169.518C156.743,188.029 146.231,206.819 127.72,212.122C109.199,217.428 90.344,207.05 85.041,188.539C79.738,170.028 90.3,150.992 108.821,145.686Z" style="fill:url(#_Linear1);"/>
        <g transform="matrix(0.164679,0,0,0.163983,-62.6305,61.8701)">
            <path d="M578.903,1846C535.071,1846 525.232,1846 525.232,1774.44L525.232,1257.4L414.31,1257.4L414.31,1820.06C414.31,1884.47 449.197,1937.24 528.81,1937.24L569.063,1937.24L578.903,1846Z" style="fill:url(#_Linear2);fill-rule:nonzero;"/>
            <path d="M990.386,1928.3L990.386,1481.04L879.464,1481.04L879.464,1806.64C858.89,1830.8 832.054,1844.21 795.379,1844.21C732.762,1844.21 706.821,1804.86 706.821,1721.66L706.821,1481.04L595.899,1481.04L595.899,1721.66C595.899,1847.79 645.993,1937.25 785.539,1937.25C820.426,1937.25 858.89,1921.14 884.832,1901.46L886.621,1928.3L990.386,1928.3Z" style="fill:url(#_Linear3);fill-rule:nonzero;"/>
            <path d="M1436.76,1928.3L1291.85,1704.67L1436.76,1481.04L1304.37,1481.04L1229.23,1607.16L1147.83,1481.04L1015.44,1481.04L1159.46,1704.67L1015.44,1928.3L1147.83,1928.3L1222.97,1802.17L1304.37,1928.3L1436.76,1928.3Z" style="fill:url(#_Linear4);fill-rule:nonzero;"/>
            <path d="M1816.04,1728.82C1820.51,1707.35 1823.2,1687.67 1823.2,1667.99C1823.2,1549.91 1739.11,1473.88 1626.4,1473.88C1488.64,1473.88 1411.71,1581.22 1411.71,1705.56C1411.71,1830.8 1492.22,1937.25 1654.13,1937.25C1717.64,1937.25 1769.52,1921.14 1803.52,1903.25L1798.15,1809.33C1761.47,1829.01 1702.43,1846 1660.39,1846C1601.35,1846 1539.63,1812.01 1527.11,1728.82L1816.04,1728.82ZM1629.98,1565.12C1689.91,1565.12 1710.49,1613.43 1710.49,1653.68L1529.79,1653.68C1540.53,1602.69 1572.73,1565.12 1629.98,1565.12Z" style="fill:url(#_Linear5);fill-rule:nonzero;"/>
        </g>
    </g>
    <defs>
        <linearGradient id="_Linear1" x1="0" y1="0" x2="1" y2="0" gradientUnits="userSpaceOnUse" gradientTransform="matrix(233.045,-299.732,299.732,233.045,5.59778,309.471)"><stop offset="0" style="stop-color:rgb(255,0,124);stop-opacity:1"/><stop offset="0.52" style="stop-color:rgb(52,50,106);stop-opacity:1"/><stop offset="1" style="stop-color:rgb(22,22,25);stop-opacity:1"/></linearGradient>
        <linearGradient id="_Linear2" x1="0" y1="0" x2="1" y2="-0.00404327" gradientUnits="userSpaceOnUse" gradientTransform="matrix(2206.86,-2987.35,2987.35,2206.86,251.716,3074.99)"><stop offset="0" style="stop-color:rgb(255,0,124);stop-opacity:1"/><stop offset="0.52" style="stop-color:rgb(52,50,106);stop-opacity:1"/><stop offset="1" style="stop-color:rgb(22,22,25);stop-opacity:1"/></linearGradient>
        <linearGradient id="_Linear3" x1="0" y1="0" x2="1" y2="-0.00404327" gradientUnits="userSpaceOnUse" gradientTransform="matrix(2206.86,-2987.35,2987.35,2206.86,251.716,3074.99)"><stop offset="0" style="stop-color:rgb(255,0,124);stop-opacity:1"/><stop offset="0.52" style="stop-color:rgb(52,50,106);stop-opacity:1"/><stop offset="1" style="stop-color:rgb(22,22,25);stop-opacity:1"/></linearGradient>
        <linearGradient id="_Linear4" x1="0" y1="0" x2="1" y2="-0.00404327" gradientUnits="userSpaceOnUse" gradientTransform="matrix(2206.86,-2987.35,2987.35,2206.86,251.716,3074.99)"><stop offset="0" style="stop-color:rgb(255,0,124);stop-opacity:1"/><stop offset="0.52" style="stop-color:rgb(52,50,106);stop-opacity:1"/><stop offset="1" style="stop-color:rgb(22,22,25);stop-opacity:1"/></linearGradient>
        <linearGradient id="_Linear5" x1="0" y1="0" x2="1" y2="-0.00404327" gradientUnits="userSpaceOnUse" gradientTransform="matrix(2206.86,-2987.35,2987.35,2206.86,251.716,3074.99)"><stop offset="0" style="stop-color:rgb(255,0,124);stop-opacity:1"/><stop offset="0.52" style="stop-color:rgb(52,50,106);stop-opacity:1"/><stop offset="1" style="stop-color:rgb(22,22,25);stop-opacity:1"/></linearGradient>
    </defs>
</svg>
